<svg t="1781599008569" class="icon" viewBox="0 0 1024 1024" version="1.1" xmlns="http://www.w3.org/2000/svg" p-id="61205" width="200" height="200"><path d="M117.103 827.027h727.098c30.091 0 54.546-24.455 54.546-54.546V649.388H637.744c-19.546 0-38.637-3.819-56.546-11.455-17.273-7.273-32.818-17.818-46.09-31.09-13.274-13.273-23.82-28.818-31.09-46.092-7.547-17.909-11.457-37-11.457-56.546v-15.363c0-19.547 3.818-38.637 11.456-56.546 7.273-17.274 17.818-32.819 31.09-46.091 13.274-13.273 28.818-23.82 46.091-31.091 17.909-7.545 37-11.455 56.546-11.455h261.003V220.565c0-30.09-24.454-54.546-54.546-54.546H117.103c-30.091 0-54.546 24.455-54.546 54.546v551.916c0 30.09 24.455 54.546 54.546 54.546z" fill="#FF9501" p-id="61206"></path><path d="M958.928 439.114c0-22.637-18.273-40.91-40.91-40.91H637.744c-50.092 0-90.637 40.546-90.637 90.638v15.363c0 50.092 40.546 90.638 90.637 90.638h280.275c22.637 0 40.91-18.273 40.91-40.91V439.114h-0.001zM652.562 544.66c-26.636 0-48.182-21.546-48.182-48.182 0-26.636 21.546-48.182 48.182-48.182 26.638 0 48.183 21.546 48.183 48.182 0 26.636-21.546 48.182-48.183 48.182z" fill="#FF9501" p-id="61207"></path></svg>