<?xml version="1.0" standalone="no"?><!DOCTYPE svg PUBLIC "-//W3C//DTD SVG 1.1//EN" "http://www.w3.org/Graphics/SVG/1.1/DTD/svg11.dtd"><svg t="1781676512702" class="icon" viewBox="0 0 1024 1024" version="1.1" xmlns="http://www.w3.org/2000/svg" p-id="15992" xmlns:xlink="http://www.w3.org/1999/xlink" width="200" height="200"><path d="M826.514286 0H197.485714C87.771429 0 0 87.771429 0 197.485714v629.028572C0 936.228571 87.771429 1024 197.485714 1024h629.028572c109.714286 0 197.485714-87.771429 197.485714-197.485714V197.485714C1024 87.771429 936.228571 0 826.514286 0z" fill="#BFF5FF" p-id="15993"></path><path d="M314.514286 197.485714c29.257143 0 51.2 14.628571 65.828571 36.571429s14.628571 51.2 0 80.457143c-14.628571 29.257143-36.571429 43.885714-65.828571 43.885714-43.885714 0-73.142857-36.571429-73.142857-80.457143s29.257143-73.142857 73.142857-80.457143z" fill="#FFC234" p-id="15994"></path><path d="M943.542857 826.514286c0 65.828571-51.2 117.028571-117.028571 117.028571H197.485714c-65.828571 0-117.028571-51.2-117.028571-117.028571V804.571429l168.228571-168.228572c7.314286-7.314286 14.628571-14.628571 29.257143-14.628571s21.942857 7.314286 29.257143 14.628571l43.885714 43.885714c43.885714 51.2 117.028571 51.2 160.914286 0l204.8-204.8c7.314286-7.314286 14.628571-14.628571 29.257143-14.628571 7.314286 0 21.942857 7.314286 29.257143 14.628571l168.228571 168.228572v182.857143z" fill="#33CA78" p-id="15995"></path></svg>