<svg t="1781598056823" class="icon" viewBox="0 0 1024 1024" version="1.1" xmlns="http://www.w3.org/2000/svg" p-id="56563" width="200" height="200"><path d="M791.272727 116.363636H232.727273a93.090909 93.090909 0 0 0-93.090909 93.090909v399.01091a93.090909 93.090909 0 0 0 62.836363 88.040727l558.545455 192a93.090909 93.090909 0 0 0 123.345454-88.040727V209.454545a93.090909 93.090909 0 0 0-93.090909-93.090909z" fill="#85EDAB" p-id="56564"></path><path d="M232.727273 116.363636h558.545454a93.090909 93.090909 0 0 1 93.090909 93.090909v399.01091a93.090909 93.090909 0 0 1-62.836363 88.040727l-558.545455 192A93.090909 93.090909 0 0 1 139.636364 800.465455V209.454545a93.090909 93.090909 0 0 1 93.090909-93.090909z" fill="#65CD8C" p-id="56565"></path><path d="M455.517091 387.746909l-79.639273 11.52-2.653091 0.535273a23.272727 23.272727 0 0 0-10.24 39.191273l57.669818 56.133818-13.66109 79.36-0.302546 2.56a23.272727 23.272727 0 0 0 34.071273 21.969454L512 561.501091l71.214545 37.515636 2.350546 1.070546a23.272727 23.272727 0 0 0 31.441454-25.6l-13.684363-79.36 57.716363-56.133818 1.815273-2.001455a23.272727 23.272727 0 0 0-14.731636-37.701818l-79.662546-11.543273-35.584-72.215273a23.272727 23.272727 0 0 0-41.751272 0l-35.607273 72.215273zM512 378.461091l20.107636 40.866909 1.419637 2.466909a23.272727 23.272727 0 0 0 16.128 10.263273l45.056 6.516363-32.628364 31.744-1.908364 2.117819a23.272727 23.272727 0 0 0-4.794181 18.525091l7.726545 44.846545-40.261818-21.201455-2.606546-1.163636a23.272727 23.272727 0 0 0-19.083636 1.163636l-40.285091 21.201455 7.749818-44.846545 0.302546-2.839273a23.272727 23.272727 0 0 0-7.005091-17.803637l-32.651636-31.744 45.079272-6.516363a23.272727 23.272727 0 0 0 17.547637-12.730182L512 378.461091z" fill="#FFFFFF" p-id="56566"></path></svg>