<svg t="1781248201519" class="icon" viewBox="0 0 1024 1024" version="1.1"
    xmlns="http://www.w3.org/2000/svg" p-id="6420" width="200" height="200">
    <path
        d="M512 949.7088a409.6 409.6 0 1 0 0-819.2 409.6 409.6 0 0 0 0 819.2zM793.6 102.4a128 128 0 0 1 109.6192 194.0992 463.0528 463.0528 0 0 0-185.7536-168.96c21.248-15.8208 47.616-25.1392 76.1344-25.1392z"
        fill="#F8A95D" p-id="6421"></path>
    <path
        d="M105.957868 215.047508a128 128 0 0 1 204.494231-88.729803 463.0528 463.0528 0 0 0-187.512581 167.17138C109.493381 270.556353 102.982235 243.358762 105.96322 214.996589z"
        fill="#F8A95D" p-id="6422"></path>
    <path d="M512.768 514.5088h256a25.6 25.6 0 0 1 0 51.2h-256a25.6 25.6 0 1 1 0-51.2z"
        fill="#FFFFFF" p-id="6423"></path>
    <path
        d="M487.168 565.7088m0-25.6l0-204.8q0-25.6 25.6-25.6l0 0q25.6 0 25.6 25.6l0 204.8q0 25.6-25.6 25.6l0 0q-25.6 0-25.6-25.6Z"
        fill="#FFFFFF" p-id="6424"></path>
</svg>