<svg t="1781597611000" class="icon" viewBox="0 0 1024 1024" version="1.1" xmlns="http://www.w3.org/2000/svg" p-id="53746" width="200" height="200"><path d="M85.333333 170.666667a85.333333 85.333333 0 0 1 85.333334-85.333334h682.666666a85.333333 85.333333 0 0 1 85.333334 85.333334v682.666666a85.333333 85.333333 0 0 1-85.333334 85.333334H170.666667a85.333333 85.333333 0 0 1-85.333334-85.333334V170.666667z" fill="#32A645" p-id="53747"></path><path d="M734.165333 435.498667a42.666667 42.666667 0 0 0-60.330666-60.330667L469.333333 579.669333l-97.834666-97.834666a42.666667 42.666667 0 0 0-60.330667 60.330666l128 128a42.666667 42.666667 0 0 0 60.330667 0l234.666666-234.666666z" fill="#FFFFFF" p-id="53748"></path></svg>