<svg t="1782184615338" class="icon" viewBox="0 0 1024 1024" version="1.1" xmlns="http://www.w3.org/2000/svg" p-id="1716" width="200" height="200"><path d="M938.666667 298.666667m0 128l0 341.333333q0 128-128 128l-512 0q-128 0-128-128l0-341.333333q0-128 128-128l512 0q128 0 128 128Z" fill="#F99508" opacity=".2" p-id="1717"></path><path d="M607.957333 671.402667c-13.098667 0-23.722667-11.178667-23.722666-24.96 0-13.781333 10.666667-24.917333 23.722666-24.917334h142.250667c13.056 0 23.68 11.136 23.68 24.917334 0 13.781333-10.624 24.96-23.68 24.96h-142.250667z m227.584-99.754667h-227.584c-13.098667 0-23.722667-11.136-23.722666-24.917333 0-13.781333 10.666667-24.96 23.722666-24.96h227.584c13.056 0 23.68 11.178667 23.68 24.96 0 13.781333-10.624 24.917333-23.68 24.917333z" fill="#FFFFFF" p-id="1718"></path><path d="M85.333333 128m128 0l341.333334 0q128 0 128 128l0 512q0 128-128 128l-341.333334 0q-128 0-128-128l0-512q0-128 128-128Z" fill="#F99508" p-id="1719"></path><path d="M276.096 426.666667a42.666667 42.666667 0 1 1 0-85.333334H493.653333a42.666667 42.666667 0 1 1 0 85.333334H426.666667v213.333333a42.666667 42.666667 0 0 1-85.333334 0V426.666667H276.096z" fill="#FFFFFF" p-id="1720"></path></svg>