<svg t="1781170273229" class="icon" viewBox="0 0 1024 1024" version="1.1" xmlns="http://www.w3.org/2000/svg" p-id="4563" width="200" height="200"><path d="M0 0m256 0l512 0q256 0 256 256l0 512q0 256-256 256l-512 0q-256 0-256-256l0-512q0-256 256-256Z" fill="#000000" fill-opacity="0" p-id="4564"></path><path d="M750.464 556.032h-408.96A43.328 43.328 0 0 1 298.752 512c0-24.32 19.072-44.032 42.624-44.032h409.024l-55.04-56.704a44.992 44.992 0 0 1-0.192-62.272 41.792 41.792 0 0 1 60.352-0.256l128 132.032a44.992 44.992 0 0 1 0 62.08l-128 131.968a41.728 41.728 0 0 1-57.92-2.304 44.992 44.992 0 0 1-2.24-59.776l55.04-56.704zM512.064 688c0-24.32 19.136-44.032 42.688-44.032 23.552 0 42.688 19.712 42.688 44.032v88c0 48.576-38.528 88-85.504 88H213.44c-22.656 0-44.416-9.344-60.48-25.92A89.6 89.6 0 0 1 128 775.68V248.32c0.064-48.64 38.272-88.128 85.44-88.32H512c47.04 0 85.504 39.488 85.504 87.552V336c0 24.32-19.136 44.032-42.688 44.032a43.328 43.328 0 0 1-42.688-44.032L512 248l-298.624 0.32 0.128 527.68s298.624-0.192 298.624 0V688z" fill="#ffffff" fill-opacity=".88" p-id="4565"></path></svg>